<?xml version="1.0" standalone="no"?>
<!DOCTYPE svg PUBLIC "-//W3C//DTD SVG 20010904//EN"
 "http://www.w3.org/TR/2001/REC-SVG-20010904/DTD/svg10.dtd">
<svg version="1.0" xmlns="http://www.w3.org/2000/svg"
 width="357.000000pt" height="357.000000pt" viewBox="0 0 357.000000 357.000000"
 preserveAspectRatio="xMidYMid meet">
<metadata>
Created by potrace 1.14, written by Peter Selinger 2001-2017
</metadata>
<g transform="translate(0.000000,357.000000) scale(0.100000,-0.100000)"
fill="#000000" stroke="none">
<path d="M1615 3563 c-188 -22 -385 -72 -516 -131 -24 -11 -64 -28 -89 -39
-46 -20 -251 -140 -260 -153 -3 -3 -32 -26 -65 -50 -84 -61 -251 -231 -325
-331 -162 -218 -270 -459 -325 -724 -25 -123 -30 -180 -30 -350 1 -203 8 -268
50 -435 122 -491 451 -908 905 -1147 352 -186 765 -244 1179 -168 28 6 78 19
191 50 8 2 44 15 80 28 353 133 655 374 862 688 82 123 118 195 183 354 5 11
9 22 10 25 0 3 13 43 27 90 53 168 72 298 72 500 1 187 -3 235 -30 370 -37
185 -108 371 -212 555 -33 57 -148 215 -202 276 -84 95 -234 224 -342 296 -99
65 -304 173 -330 173 -8 0 -18 4 -24 9 -19 19 -238 80 -349 97 -16 3 -41 8
-55 10 -30 7 -363 12 -405 7z"/>
</g>
</svg>
